<svg width="184" height="27" viewBox="0 0 184 27" fill="none" xmlns="http://www.w3.org/2000/svg">
<path d="M6.95788 13.1729C6.24502 12.5363 5.11476 13.0423 5.11476 13.998V24.9143C5.11476 25.5253 4.61947 26.0206 4.0085 26.0206H1.10626C0.495289 26.0206 0 25.5253 0 24.9143V3.08664C0 2.13012 1.13184 1.62442 1.84434 2.2626L15.484 14.4795C15.7183 14.6893 15.8521 14.989 15.8521 15.3035V18.6445C15.8521 19.6003 14.7219 20.1063 14.009 19.4697L6.95788 13.1729ZM16.5776 2.15945C16.5776 1.54848 17.0729 1.05319 17.6839 1.05319H20.5861C21.1971 1.05319 21.6924 1.54848 21.6924 2.15945V24.0286C21.6924 24.9844 20.562 25.4903 19.8492 24.8536L16.9832 22.2937C16.7483 22.0838 16.6139 21.7837 16.6139 21.4686V5.7919C16.6139 5.78188 16.6058 5.77376 16.5958 5.77376C16.5858 5.77376 16.5776 5.76564 16.5776 5.75562V2.15945Z" fill="white"/>
<path d="M26.5331 2.15945C26.5331 1.54848 27.0284 1.05319 27.6394 1.05319H30.5416C31.1526 1.05319 31.6479 1.54848 31.6479 2.15945V24.9143C31.6479 25.5253 31.1526 26.0206 30.5416 26.0206H27.6394C27.0284 26.0206 26.5331 25.5253 26.5331 24.9143V2.15945ZM41.6055 20.8206C42.2164 20.8206 42.7117 21.3159 42.7117 21.9268V24.9143C42.7117 25.5253 42.2164 26.0206 41.6055 26.0206H33.661C33.05 26.0206 32.5548 25.5253 32.5548 24.9143V21.9268C32.5548 21.3159 33.05 20.8206 33.661 20.8206H41.6055ZM41.6055 1.05319C42.2164 1.05319 42.7117 1.54848 42.7117 2.15945V5.14693C42.7117 5.7579 42.2164 6.25319 41.6055 6.25319H33.661C33.05 6.25319 32.5548 5.7579 32.5548 5.14693V2.15945C32.5548 1.54848 33.05 1.05319 33.661 1.05319H41.6055ZM39.9731 10.9369C40.5841 10.9369 41.0794 11.4322 41.0794 12.0431V14.9937C41.0794 15.6047 40.5841 16.1 39.9731 16.1H33.661C33.05 16.1 32.5548 15.6047 32.5548 14.9937V12.0431C32.5548 11.4322 33.05 10.9369 33.661 10.9369H39.9731Z" fill="white"/>
<path d="M66.3421 25.2911C66.3547 25.3103 66.3659 25.3303 66.3755 25.351C66.5209 25.6631 66.2931 26.0206 65.9488 26.0206H61.2618C60.8898 26.0206 60.5426 25.8336 60.338 25.5229L56.3813 19.5169C55.9402 18.8474 54.9552 18.8545 54.518 19.5265C53.9654 20.3758 53.4029 21.2251 52.8305 22.0745C52.0506 23.2102 51.2891 24.3553 50.5459 25.5097C50.3414 25.8275 49.9899 26.0206 49.612 26.0206H45.0632C44.7651 26.0206 44.5235 25.7789 44.5235 25.4808C44.5235 25.3758 44.5541 25.2731 44.6117 25.1852L51.9231 14.018C52.1655 13.6478 52.1639 13.1689 51.9196 12.8C50.7386 11.0166 49.5187 9.15391 48.2598 7.21206C47.2603 5.67021 46.2853 4.17831 45.3348 2.73636C44.8491 1.99942 45.3768 1.01631 46.2594 1.01631H49.7663C50.1391 1.01631 50.4869 1.20414 50.6914 1.51595L54.5216 7.35695C54.9573 8.02138 55.9304 8.02344 56.3668 7.35953C56.9051 6.54088 57.4433 5.71725 57.9815 4.88865C58.7397 3.73244 59.4887 2.60419 60.2285 1.50392C60.4336 1.19885 60.7773 1.01631 61.145 1.01631H64.6341C65.5149 1.01631 66.0425 1.99553 65.558 2.73109L58.9262 12.7997C58.6831 13.1687 58.6829 13.647 58.9258 14.0162L66.3421 25.2911Z" fill="white"/>
<path d="M75.3692 26.0206C74.7583 26.0206 74.263 25.5253 74.263 24.9143V8.02328C74.263 7.41231 74.7583 6.91702 75.3692 6.91702H78.2715C78.8825 6.91702 79.3777 7.41231 79.3777 8.02328V24.9143C79.3777 25.5253 78.8825 26.0206 78.2715 26.0206H75.3692ZM84.9824 0.979433C85.5933 0.979433 86.0886 1.47472 86.0886 2.08569V5.07317C86.0886 5.68414 85.5933 6.17943 84.9824 6.17943H68.8035C68.1925 6.17943 67.6972 5.68414 67.6972 5.07317V2.08569C67.6972 1.47472 68.1925 0.979433 68.8035 0.979433H84.9824Z" fill="white"/>
<path d="M99.5455 1.05319C100.561 1.05319 101.516 1.24988 102.411 1.64326C103.33 2.03664 104.116 2.57754 104.769 3.26596C105.446 3.92979 105.978 4.72884 106.365 5.66312C106.776 6.57281 106.982 7.54397 106.982 8.5766C106.982 9.63381 106.776 10.6173 106.365 11.527C105.978 12.4366 105.446 13.2357 104.769 13.9241C104.116 14.5879 103.33 15.1165 102.411 15.5099C101.516 15.9033 100.561 16.1 99.5455 16.1H95.0654C94.4544 16.1 93.9591 16.5953 93.9591 17.2063V24.9143C93.9591 25.5253 93.4638 26.0206 92.8529 26.0206H89.9869C89.3759 26.0206 88.8806 25.5253 88.8806 24.9143V2.15945C88.8806 1.54848 89.3759 1.05319 89.9869 1.05319H99.5455ZM99.5455 10.9369C100.198 10.9369 100.743 10.7156 101.178 10.2731C101.637 9.80591 101.867 9.24043 101.867 8.5766C101.867 7.91277 101.637 7.35958 101.178 6.91702C100.743 6.47447 100.198 6.25319 99.5455 6.25319H95.0654C94.4544 6.25319 93.9591 6.74848 93.9591 7.35945V9.83062C93.9591 10.4416 94.4544 10.9369 95.0654 10.9369H99.5455ZM95.9506 18.6907C95.348 17.9706 95.86 16.8745 96.799 16.8745H100.044C100.372 16.8745 100.683 17.0196 100.893 17.2708L106.695 24.2043C107.298 24.9244 106.786 26.0206 105.847 26.0206H102.601C102.274 26.0206 101.963 25.8754 101.753 25.6243L95.9506 18.6907Z" fill="white"/>
<path d="M120.86 1.05319C122.553 1.05319 124.149 1.38511 125.648 2.04894C127.148 2.68818 128.454 3.57329 129.566 4.70426C130.703 5.83523 131.585 7.16289 132.214 8.68723C132.867 10.2116 133.194 11.8343 133.194 13.5553C133.194 15.2764 132.867 16.8991 132.214 18.4234C131.585 19.9232 130.703 21.2385 129.566 22.3695C128.454 23.5005 127.148 24.3979 125.648 25.0617C124.149 25.7009 122.553 26.0206 120.86 26.0206C119.167 26.0206 117.571 25.7009 116.072 25.0617C114.597 24.3979 113.303 23.5005 112.19 22.3695C111.078 21.2385 110.195 19.9232 109.542 18.4234C108.914 16.8991 108.599 15.2764 108.599 13.5553C108.599 11.8343 108.914 10.2116 109.542 8.68723C110.195 7.16289 111.078 5.83523 112.19 4.70426C113.303 3.57329 114.597 2.68818 116.072 2.04894C117.571 1.38511 119.167 1.05319 120.86 1.05319ZM120.86 20.8206C121.852 20.8206 122.783 20.6362 123.653 20.2674C124.548 19.874 125.322 19.3577 125.975 18.7184C126.628 18.0546 127.136 17.2801 127.498 16.395C127.885 15.5099 128.079 14.5634 128.079 13.5553C128.079 12.5473 127.885 11.6007 127.498 10.7156C127.136 9.8305 126.628 9.05603 125.975 8.3922C125.322 7.72837 124.548 7.21206 123.653 6.84326C122.783 6.44988 121.852 6.25319 120.86 6.25319C119.869 6.25319 118.938 6.44988 118.067 6.84326C117.221 7.21206 116.471 7.72837 115.818 8.3922C115.165 9.05603 114.645 9.8305 114.258 10.7156C113.895 11.6007 113.714 12.5473 113.714 13.5553C113.714 14.5634 113.895 15.5099 114.258 16.395C114.645 17.2801 115.165 18.0546 115.818 18.7184C116.471 19.3577 117.221 19.874 118.067 20.2674C118.938 20.6362 119.869 20.8206 120.86 20.8206Z" fill="white"/>
<path d="M147.783 1.05319C149.476 1.05319 151.072 1.38511 152.571 2.04894C154.071 2.68818 155.376 3.57329 156.489 4.70426C157.625 5.83523 158.508 7.16289 159.137 8.68723C159.79 10.2116 160.116 11.8343 160.116 13.5553C160.116 15.2764 159.79 16.8991 159.137 18.4234C158.508 19.9232 157.625 21.2385 156.489 22.3695C155.376 23.5005 154.071 24.3979 152.571 25.0617C151.072 25.7009 149.476 26.0206 147.783 26.0206C146.09 26.0206 144.494 25.7009 142.995 25.0617C141.519 24.3979 140.226 23.5005 139.113 22.3695C138.001 21.2385 137.118 19.9232 136.465 18.4234C135.836 16.8991 135.522 15.2764 135.522 13.5553C135.522 11.8343 135.836 10.2116 136.465 8.68723C137.118 7.16289 138.001 5.83523 139.113 4.70426C140.226 3.57329 141.519 2.68818 142.995 2.04894C144.494 1.38511 146.09 1.05319 147.783 1.05319ZM147.783 20.8206C148.774 20.8206 149.705 20.6362 150.576 20.2674C151.471 19.874 152.245 19.3577 152.898 18.7184C153.551 18.0546 154.058 17.2801 154.421 16.395C154.808 15.5099 155.002 14.5634 155.002 13.5553C155.002 12.5473 154.808 11.6007 154.421 10.7156C154.058 9.8305 153.551 9.05603 152.898 8.3922C152.245 7.72837 151.471 7.21206 150.576 6.84326C149.705 6.44988 148.774 6.25319 147.783 6.25319C146.791 6.25319 145.86 6.44988 144.99 6.84326C144.143 7.21206 143.394 7.72837 142.741 8.3922C142.088 9.05603 141.568 9.8305 141.181 10.7156C140.818 11.6007 140.637 12.5473 140.637 13.5553C140.637 14.5634 140.818 15.5099 141.181 16.395C141.568 17.2801 142.088 18.0546 142.741 18.7184C143.394 19.3577 144.143 19.874 144.99 20.2674C145.86 20.6362 146.791 20.8206 147.783 20.8206Z" fill="white"/>
<path d="M182.098 2.46799C182.789 1.75269 184 2.24201 184 3.23674V24.9143C184 25.5253 183.505 26.0206 182.894 26.0206H180.028C179.417 26.0206 178.922 25.5253 178.922 24.9143V16.0239C178.922 15.0516 177.757 14.5523 177.053 15.2224L175.712 16.4981C175.007 17.1683 173.843 16.6689 173.843 15.6966V11.4578C173.843 11.171 173.954 10.8953 174.154 10.6891L182.098 2.46799ZM172.698 10.6891C172.897 10.8953 173.009 11.171 173.009 11.4578V15.6966C173.009 16.6689 171.844 17.1683 171.14 16.4981L169.799 15.2224C169.094 14.5523 167.93 15.0516 167.93 16.0239V24.9143C167.93 25.5253 167.435 26.0206 166.824 26.0206H163.958C163.347 26.0206 162.852 25.5253 162.852 24.9143V3.23674C162.852 2.24201 164.062 1.75268 164.754 2.46799L172.698 10.6891Z" fill="white"/>
</svg>
