<svg width="219" height="24" viewBox="0 0 219 24" fill="none" xmlns="http://www.w3.org/2000/svg">
<path d="M23.25 21.2656C23.25 21.5573 23.1927 21.8281 23.0781 22.0781C22.974 22.3281 22.8281 22.5469 22.6406 22.7344C22.4635 22.9115 22.25 23.0521 22 23.1562C21.75 23.2604 21.4844 23.3125 21.2031 23.3125C20.9531 23.3125 20.6979 23.2656 20.4375 23.1719C20.1875 23.0781 19.9635 22.9271 19.7656 22.7188L4.92188 7.21875V23H0.859375V2.32812C0.859375 1.91146 0.973958 1.53646 1.20312 1.20312C1.44271 0.859375 1.74479 0.604167 2.10938 0.4375C2.49479 0.28125 2.89062 0.244792 3.29688 0.328125C3.70312 0.401042 4.05208 0.588542 4.34375 0.890625L19.1875 16.375V0.59375H23.25V21.2656ZM46.4062 13.8438H33.5781V9.75H46.4062V13.8438ZM48.2344 23H33.5781C33.0156 23 32.401 22.901 31.7344 22.7031C31.0677 22.5052 30.4479 22.1823 29.875 21.7344C29.3125 21.276 28.8385 20.6875 28.4531 19.9688C28.0781 19.2396 27.8906 18.349 27.8906 17.2969V2.64062C27.8906 2.35938 27.9427 2.09375 28.0469 1.84375C28.151 1.59375 28.2917 1.375 28.4688 1.1875C28.6562 1 28.875 0.854167 29.125 0.75C29.375 0.645833 29.6458 0.59375 29.9375 0.59375H48.2344V4.65625H31.9531V17.2969C31.9531 17.8281 32.0938 18.2344 32.375 18.5156C32.6562 18.7969 33.0677 18.9375 33.6094 18.9375H48.2344V23ZM62.4062 8.59375L69.25 0.59375H74.7969L65.1562 11.8281L74.7344 23H69.2188L62.4062 15.0625L55.625 23H50.0938L59.6562 11.8281L50.0625 0.59375H55.5625L62.4062 8.59375ZM97.6094 4.65625H88.6562V23H84.5938V4.65625H75.625V0.59375H97.6094V4.65625ZM133.062 8.125C133.062 9.05208 132.948 9.88021 132.719 10.6094C132.49 11.3385 132.177 11.9844 131.781 12.5469C131.396 13.099 130.948 13.5729 130.438 13.9688C129.927 14.3646 129.391 14.6927 128.828 14.9531C128.276 15.2031 127.714 15.3854 127.141 15.5C126.578 15.6146 126.047 15.6719 125.547 15.6719L134.031 23H127.75L119.281 15.6719H116.359V11.6094H125.547C126.057 11.5677 126.521 11.4635 126.938 11.2969C127.365 11.1198 127.729 10.8854 128.031 10.5938C128.344 10.3021 128.583 9.95312 128.75 9.54688C128.917 9.13021 129 8.65625 129 8.125V5.5625C129 5.33333 128.969 5.16146 128.906 5.04688C128.854 4.92188 128.781 4.83333 128.688 4.78125C128.604 4.71875 128.51 4.68229 128.406 4.67188C128.312 4.66146 128.224 4.65625 128.141 4.65625H114.734V23H110.672V2.64062C110.672 2.35938 110.724 2.09375 110.828 1.84375C110.932 1.59375 111.073 1.375 111.25 1.1875C111.438 1 111.656 0.854167 111.906 0.75C112.156 0.645833 112.427 0.59375 112.719 0.59375H128.141C129.047 0.59375 129.812 0.760417 130.438 1.09375C131.062 1.41667 131.568 1.82812 131.953 2.32812C132.349 2.81771 132.63 3.34896 132.797 3.92188C132.974 4.49479 133.062 5.03125 133.062 5.53125V8.125ZM160.656 13.9375C160.656 15.3021 160.422 16.5573 159.953 17.7031C159.484 18.849 158.833 19.8385 158 20.6719C157.167 21.5052 156.177 22.1562 155.031 22.625C153.896 23.0833 152.656 23.3125 151.312 23.3125H145.812C144.469 23.3125 143.224 23.0833 142.078 22.625C140.932 22.1562 139.943 21.5052 139.109 20.6719C138.276 19.8385 137.62 18.849 137.141 17.7031C136.672 16.5573 136.438 15.3021 136.438 13.9375V9.65625C136.438 8.30208 136.672 7.05208 137.141 5.90625C137.62 4.75 138.276 3.76042 139.109 2.9375C139.943 2.10417 140.932 1.45312 142.078 0.984375C143.224 0.515625 144.469 0.28125 145.812 0.28125H151.312C152.656 0.28125 153.896 0.515625 155.031 0.984375C156.177 1.45312 157.167 2.10417 158 2.9375C158.833 3.76042 159.484 4.75 159.953 5.90625C160.422 7.05208 160.656 8.30208 160.656 9.65625V13.9375ZM156.594 9.65625C156.594 8.85417 156.464 8.13021 156.203 7.48438C155.953 6.82812 155.594 6.27083 155.125 5.8125C154.667 5.34375 154.109 4.98438 153.453 4.73438C152.807 4.47396 152.094 4.34375 151.312 4.34375H145.812C145.021 4.34375 144.297 4.47396 143.641 4.73438C142.995 4.98438 142.438 5.34375 141.969 5.8125C141.5 6.27083 141.135 6.82812 140.875 7.48438C140.625 8.13021 140.5 8.85417 140.5 9.65625V13.9375C140.5 14.7396 140.625 15.4688 140.875 16.125C141.135 16.7708 141.5 17.3281 141.969 17.7969C142.438 18.2552 142.995 18.6146 143.641 18.875C144.297 19.125 145.021 19.25 145.812 19.25H151.281C152.073 19.25 152.792 19.125 153.438 18.875C154.094 18.6146 154.656 18.2552 155.125 17.7969C155.594 17.3281 155.953 16.7708 156.203 16.125C156.464 15.4688 156.594 14.7396 156.594 13.9375V9.65625ZM188.188 13.9375C188.188 15.3021 187.953 16.5573 187.484 17.7031C187.016 18.849 186.365 19.8385 185.531 20.6719C184.698 21.5052 183.708 22.1562 182.562 22.625C181.427 23.0833 180.188 23.3125 178.844 23.3125H173.344C172 23.3125 170.755 23.0833 169.609 22.625C168.464 22.1562 167.474 21.5052 166.641 20.6719C165.807 19.8385 165.151 18.849 164.672 17.7031C164.203 16.5573 163.969 15.3021 163.969 13.9375V9.65625C163.969 8.30208 164.203 7.05208 164.672 5.90625C165.151 4.75 165.807 3.76042 166.641 2.9375C167.474 2.10417 168.464 1.45312 169.609 0.984375C170.755 0.515625 172 0.28125 173.344 0.28125H178.844C180.188 0.28125 181.427 0.515625 182.562 0.984375C183.708 1.45312 184.698 2.10417 185.531 2.9375C186.365 3.76042 187.016 4.75 187.484 5.90625C187.953 7.05208 188.188 8.30208 188.188 9.65625V13.9375ZM184.125 9.65625C184.125 8.85417 183.995 8.13021 183.734 7.48438C183.484 6.82812 183.125 6.27083 182.656 5.8125C182.198 5.34375 181.641 4.98438 180.984 4.73438C180.339 4.47396 179.625 4.34375 178.844 4.34375H173.344C172.552 4.34375 171.828 4.47396 171.172 4.73438C170.526 4.98438 169.969 5.34375 169.5 5.8125C169.031 6.27083 168.667 6.82812 168.406 7.48438C168.156 8.13021 168.031 8.85417 168.031 9.65625V13.9375C168.031 14.7396 168.156 15.4688 168.406 16.125C168.667 16.7708 169.031 17.3281 169.5 17.7969C169.969 18.2552 170.526 18.6146 171.172 18.875C171.828 19.125 172.552 19.25 173.344 19.25H178.812C179.604 19.25 180.323 19.125 180.969 18.875C181.625 18.6146 182.188 18.2552 182.656 17.7969C183.125 17.3281 183.484 16.7708 183.734 16.125C183.995 15.4688 184.125 14.7396 184.125 13.9375V9.65625ZM218.281 23H214.188V9.65625L206.984 22.3281C206.807 22.651 206.557 22.8958 206.234 23.0625C205.922 23.2292 205.583 23.3125 205.219 23.3125C204.865 23.3125 204.531 23.2292 204.219 23.0625C203.917 22.8958 203.677 22.651 203.5 22.3281L196.266 9.65625V23H192.203V2.32812C192.203 1.85938 192.339 1.44271 192.609 1.07812C192.891 0.713542 193.255 0.46875 193.703 0.34375C193.922 0.291667 194.141 0.276042 194.359 0.296875C194.578 0.307292 194.786 0.354167 194.984 0.4375C195.193 0.510417 195.38 0.619792 195.547 0.765625C195.714 0.901042 195.854 1.06771 195.969 1.26562L205.219 17.3438L214.469 1.26562C214.708 0.869792 215.036 0.588542 215.453 0.421875C215.88 0.255208 216.323 0.229167 216.781 0.34375C217.219 0.46875 217.578 0.713542 217.859 1.07812C218.141 1.44271 218.281 1.85938 218.281 2.32812V23Z" fill="url(#paint0_linear_55272_45897)"/>
<defs>
<linearGradient id="paint0_linear_55272_45897" x1="110" y1="-9" x2="110" y2="32" gradientUnits="userSpaceOnUse">
<stop stop-color="white"/>
<stop offset="1" stop-color="white" stop-opacity="0.1"/>
</linearGradient>
</defs>
</svg>
